<svg width="30" height="30" viewBox="0 0 30 30" fill="none" xmlns="http://www.w3.org/2000/svg">
<g clip-path="url(#clip0_24_74)">
<path d="M25.8737 22.185C27.9562 22.185 28.7262 20.7325 29.4487 18.555C30.1987 16.3112 30.1662 14.155 29.4487 11.2825C28.9325 9.21372 27.9562 7.65247 25.8737 7.65247H23.1887V10.8275C23.1887 13.2925 21.0987 15.3687 18.715 15.3687H11.565C9.60999 15.3687 7.98999 17.0425 7.98999 19.0037V25.8212C7.98999 27.7625 9.67749 28.9012 11.565 29.4562C13.8287 30.1187 16.005 30.2387 18.7162 29.4562C20.5175 28.9337 22.2925 27.8812 22.2925 25.8212V23.095H15.1462V22.1837L25.8737 22.185Z" fill="#F2BB30"/>
<path d="M4.30505 22.1863H6.76255V18.9188C6.76255 16.5538 8.80505 14.4725 11.2363 14.4725H18.3876C20.3763 14.4725 21.9626 12.8325 21.9626 10.8363V4.01129C21.9626 2.06879 20.3288 0.615037 18.3876 0.287537C15.9901 -0.107463 13.3851 -0.0874625 11.2363 0.295037L11.2376 0.293787C8.21005 0.828787 7.6613 1.94754 7.6613 4.01629V6.74129H14.8201V7.65379H4.97505C2.8913 7.65379 1.07005 8.90629 0.502553 11.285C-0.153697 14.01 -0.181197 15.71 0.502553 18.5575C1.01005 20.6725 2.2238 22.1863 4.30505 22.1863Z" fill="#35668F"/>
<path d="M15 15.3688H11.565C9.60999 15.3688 7.98999 17.0425 7.98999 19.0038V25.8213C7.98999 27.7625 9.67749 28.9013 11.565 29.4563C12.705 29.79 13.8237 29.9863 15 29.9988V15.3688Z" fill="#D3A32A"/>
<path d="M14.7837 0C13.5412 0 12.3287 0.10125 11.235 0.295L11.2362 0.29375C8.21 0.82875 7.66125 1.9475 7.66125 4.01625V6.74125H14.82V7.65375H4.975C2.89125 7.65375 1.07 8.90625 0.5025 11.285C0.1775 12.6362 0.00625 13.7362 0 14.8475V14.9738C0.00625 16.0637 0.17 17.175 0.5025 18.5575C1.01 20.6725 2.22375 22.1863 4.305 22.1863H6.7625V18.9188C6.7625 16.5538 8.805 14.4725 11.2362 14.4725H15V0.00125C14.9275 0 14.8562 0 14.7837 0Z" fill="#2E597C"/>
<path d="M22.7887 9.19662H22.7901V9.19128L22.7887 9.19662Z" fill="white"/>
<path d="M19.165 24.9112C19.9075 24.9112 20.5113 25.5212 20.5113 26.2712C20.5113 27.0287 19.9088 27.6374 19.165 27.6374C18.4275 27.6374 17.8188 27.0212 17.8188 26.2712C17.8263 25.5137 18.43 24.9112 19.165 24.9112ZM10.7875 4.91995C10.045 4.91995 9.4425 4.30995 9.4425 3.55995C9.45 2.8037 10.045 2.19495 10.7875 2.19495C11.525 2.19495 12.1338 2.8112 12.1338 3.5612C12.1338 4.30995 11.5313 4.91995 10.7875 4.91995Z" fill="white"/>
<path d="M10.7875 2.19495C10.045 2.19495 9.44875 2.8037 9.4425 3.5612C9.4425 4.3112 10.045 4.9212 10.7875 4.9212V2.19495ZM19.165 24.9112C18.4225 24.9112 17.8263 25.5199 17.82 26.2774C17.82 27.0274 18.4225 27.6374 19.165 27.6374V24.9112Z" fill="#DEDEDE"/>
</g>
<defs>
<clipPath id="clip0_24_74">
<rect width="30" height="30" fill="white"/>
</clipPath>
</defs>
</svg>
