<svg width="30" height="30" viewBox="0 0 30 30" fill="none" xmlns="http://www.w3.org/2000/svg">
<g clip-path="url(#clip0_24_82)">
<path d="M30 0H0V30H30V0Z" fill="#F7DF1E"/>
<path d="M20.1524 23.4376C20.7567 24.4242 21.5429 25.1495 22.9333 25.1495C24.1014 25.1495 24.8476 24.5657 24.8476 23.759C24.8476 22.7923 24.081 22.45 22.7952 21.8876L22.0905 21.5852C20.0562 20.7185 18.7048 19.6328 18.7048 17.3376C18.7048 15.2233 20.3157 13.6138 22.8333 13.6138C24.6257 13.6138 25.9143 14.2376 26.8429 15.8709L24.6476 17.2804C24.1643 16.4138 23.6429 16.0723 22.8333 16.0723C22.0076 16.0723 21.4843 16.5962 21.4843 17.2804C21.4843 18.1262 22.0081 18.4685 23.2176 18.9923L23.9224 19.2942C26.3176 20.3214 27.67 21.3685 27.67 23.7228C27.67 26.2609 25.6762 27.6514 22.9986 27.6514C20.3805 27.6514 18.689 26.4038 17.8614 24.7685L20.1524 23.4376ZM10.1938 23.6819C10.6367 24.4676 11.0395 25.1319 12.0081 25.1319C12.9343 25.1319 13.5186 24.7695 13.5186 23.3604V13.7747H16.3376V23.3985C16.3376 26.3176 14.6262 27.6461 12.1281 27.6461C9.87095 27.6461 8.56381 26.4781 7.89905 25.0711L10.1938 23.6819Z" fill="black"/>
</g>
<defs>
<clipPath id="clip0_24_82">
<rect width="30" height="30" fill="white"/>
</clipPath>
</defs>
</svg>
