<svg width="40" height="40" viewBox="0 0 40 40" fill="none" xmlns="http://www.w3.org/2000/svg">
<g clip-path="url(#clip0_24_45)">
<path d="M20.0097 0.30304C11.7851 0.30304 9.37975 0.311524 8.91219 0.350312C7.22436 0.490615 6.17409 0.756373 5.02988 1.32607C4.14809 1.76395 3.45266 2.27152 2.76631 2.98304C1.51635 4.28062 0.758798 5.87698 0.484564 7.77456C0.351235 8.69577 0.312448 8.88365 0.304569 13.5891C0.301539 15.1576 0.304569 17.2218 0.304569 19.9906C0.304569 28.2088 0.31366 30.6118 0.353053 31.0785C0.489412 32.7209 0.74698 33.7543 1.29242 34.8846C2.33481 37.0482 4.32566 38.6724 6.67104 39.2785C7.48314 39.4876 8.38008 39.6027 9.53156 39.6573C10.0194 39.6785 14.992 39.6936 19.9676 39.6936C24.9432 39.6936 29.9188 39.6876 30.3946 39.6633C31.7279 39.6006 32.5021 39.4967 33.3581 39.2755C35.7186 38.6664 37.6731 37.0664 38.7367 34.8724C39.2716 33.7694 39.5428 32.6967 39.6655 31.14C39.6922 30.8006 39.7034 25.3894 39.7034 19.9855C39.7034 14.5806 39.6913 9.1794 39.6646 8.84001C39.5404 7.25819 39.2691 6.19456 38.717 5.07031C38.264 4.15001 37.761 3.46274 37.0307 2.76001C35.7274 1.51516 34.1335 0.757585 32.2342 0.483646C31.3139 0.350615 31.1306 0.311221 26.4217 0.30304H20.0097Z" fill="url(#paint0_radial_24_45)"/>
<path d="M20.0097 0.30304C11.7851 0.30304 9.37975 0.311524 8.91219 0.350312C7.22436 0.490615 6.17409 0.756373 5.02988 1.32607C4.14809 1.76395 3.45266 2.27152 2.76631 2.98304C1.51635 4.28062 0.758798 5.87698 0.484564 7.77456C0.351235 8.69577 0.312448 8.88365 0.304569 13.5891C0.301539 15.1576 0.304569 17.2218 0.304569 19.9906C0.304569 28.2088 0.31366 30.6118 0.353053 31.0785C0.489412 32.7209 0.74698 33.7543 1.29242 34.8846C2.33481 37.0482 4.32566 38.6724 6.67104 39.2785C7.48314 39.4876 8.38008 39.6027 9.53156 39.6573C10.0194 39.6785 14.992 39.6936 19.9676 39.6936C24.9432 39.6936 29.9188 39.6876 30.3946 39.6633C31.7279 39.6006 32.5021 39.4967 33.3581 39.2755C35.7186 38.6664 37.6731 37.0664 38.7367 34.8724C39.2716 33.7694 39.5428 32.6967 39.6655 31.14C39.6922 30.8006 39.7034 25.3894 39.7034 19.9855C39.7034 14.5806 39.6913 9.1794 39.6646 8.84001C39.5404 7.25819 39.2691 6.19456 38.717 5.07031C38.264 4.15001 37.761 3.46274 37.0307 2.76001C35.7274 1.51516 34.1335 0.757585 32.2342 0.483646C31.3139 0.350615 31.1306 0.311221 26.4217 0.30304H20.0097Z" fill="url(#paint1_radial_24_45)"/>
<path d="M20.0006 5.45453C16.0504 5.45453 15.5546 5.4718 14.0032 5.54241C12.4547 5.61332 11.3978 5.85847 10.473 6.21817C9.51634 6.58968 8.70485 7.08665 7.89639 7.89544C7.08733 8.70392 6.59037 9.51544 6.21766 10.4718C5.85706 11.397 5.61161 12.4542 5.54192 14.0021C5.47253 15.5536 5.45435 16.0497 5.45435 20C5.45435 23.9503 5.47192 24.4445 5.54222 25.996C5.61343 27.5445 5.85858 28.6015 6.21796 29.5263C6.58977 30.483 7.08672 31.2945 7.89548 32.103C8.70364 32.9121 9.51513 33.4103 10.4712 33.7818C11.3966 34.1415 12.4538 34.3867 14.002 34.4576C15.5534 34.5282 16.0489 34.5454 19.9988 34.5454C23.9492 34.5454 24.4435 34.5282 25.9949 34.4576C27.5434 34.3867 28.6015 34.1415 29.527 33.7818C30.4833 33.4103 31.2936 32.9121 32.1017 32.103C32.9108 31.2945 33.4077 30.483 33.7805 29.5267C34.138 28.6015 34.3835 27.5442 34.4562 25.9963C34.5259 24.4448 34.5441 23.9503 34.5441 20C34.5441 16.0497 34.5259 15.5539 34.4562 14.0024C34.3835 12.4539 34.138 11.397 33.7805 10.4721C33.4077 9.51544 32.9108 8.70392 32.1017 7.89544C31.2927 7.08635 30.4836 6.58938 29.526 6.21817C28.5988 5.85847 27.5413 5.61332 25.9928 5.54241C24.4413 5.4718 23.9474 5.45453 19.996 5.45453H20.0006ZM18.6958 8.07574C19.083 8.07513 19.5151 8.07574 20.0006 8.07574C23.8841 8.07574 24.3444 8.08968 25.878 8.15938C27.2961 8.22423 28.0658 8.4612 28.5785 8.66029C29.2573 8.92392 29.7412 9.23907 30.25 9.74817C30.759 10.2573 31.0742 10.7421 31.3384 11.4209C31.5375 11.933 31.7748 12.7027 31.8393 14.1209C31.909 15.6542 31.9242 16.1148 31.9242 19.9966C31.9242 23.8785 31.909 24.3391 31.8393 25.8724C31.7745 27.2906 31.5375 28.0603 31.3384 28.5724C31.0748 29.2512 30.759 29.7345 30.25 30.2433C29.7409 30.7524 29.2576 31.0676 28.5785 31.3312C28.0664 31.5312 27.2961 31.7676 25.878 31.8324C24.3447 31.9021 23.8841 31.9173 20.0006 31.9173C16.1167 31.9173 15.6565 31.9021 14.1232 31.8324C12.705 31.767 11.9354 31.53 11.4223 31.3309C10.7436 31.0673 10.2587 30.7521 9.74967 30.243C9.24059 29.7339 8.92545 29.2503 8.66122 28.5712C8.46213 28.0591 8.22487 27.2894 8.16032 25.8712C8.09063 24.3379 8.07669 23.8773 8.07669 19.993C8.07669 16.1088 8.09063 15.6506 8.16032 14.1173C8.22517 12.6991 8.46213 11.9294 8.66122 11.4166C8.92485 10.7379 9.24059 10.253 9.74967 9.74392C10.2587 9.23483 10.7436 8.91968 11.4223 8.65544C11.9351 8.45544 12.705 8.21907 14.1232 8.15392C15.465 8.09332 15.9849 8.07513 18.6958 8.0721V8.07574ZM27.7646 10.4909C26.801 10.4909 26.0192 11.2718 26.0192 12.2357C26.0192 13.1994 26.801 13.9812 27.7646 13.9812C28.7282 13.9812 29.51 13.1994 29.51 12.2357C29.51 11.2721 28.7282 10.4903 27.7646 10.4903V10.4909ZM20.0006 12.5303C15.8755 12.5303 12.5311 15.8748 12.5311 20C12.5311 24.1251 15.8755 27.4682 20.0006 27.4682C24.1256 27.4682 27.4688 24.1251 27.4688 20C27.4688 15.8748 24.1256 12.5303 20.0006 12.5303ZM20.0006 15.1515C22.6781 15.1515 24.8489 17.3221 24.8489 20C24.8489 22.6776 22.6781 24.8485 20.0006 24.8485C17.3228 24.8485 15.1522 22.6776 15.1522 20C15.1522 17.3221 17.3228 15.1515 20.0006 15.1515Z" fill="white"/>
</g>
<defs>
<radialGradient id="paint0_radial_24_45" cx="0" cy="0" r="1" gradientUnits="userSpaceOnUse" gradientTransform="translate(10.7689 42.7276) rotate(-90) scale(39.039 36.3181)">
<stop stop-color="#FFDD55"/>
<stop offset="0.1" stop-color="#FFDD55"/>
<stop offset="0.5" stop-color="#FF543E"/>
<stop offset="1" stop-color="#C837AB"/>
</radialGradient>
<radialGradient id="paint1_radial_24_45" cx="0" cy="0" r="1" gradientUnits="userSpaceOnUse" gradientTransform="translate(-6.29651 3.14067) rotate(78.678) scale(17.4508 71.9489)">
<stop stop-color="#3771C8"/>
<stop offset="0.128" stop-color="#3771C8"/>
<stop offset="1" stop-color="#6600FF" stop-opacity="0"/>
</radialGradient>
<clipPath id="clip0_24_45">
<rect width="40" height="40" fill="white"/>
</clipPath>
</defs>
</svg>
