<svg width="30" height="30" viewBox="0 0 30 30" fill="none" xmlns="http://www.w3.org/2000/svg">
<path d="M4.18113 27.0011L1.7738 0H28.2263L25.8164 26.9968L14.9839 30L4.18113 27.0011Z" fill="#264DE4"/>
<path d="M23.7532 25.2778L25.8127 2.20764H15V27.7045L23.7532 25.2778Z" fill="#2965F1"/>
<path d="M7.29259 12.2221L7.58937 15.5337H15V12.2221H7.29259ZM6.99722 8.83101H15V5.51941H6.69617L6.99722 8.83101ZM15 20.8226L14.9855 20.8265L11.2974 19.8306L11.0616 17.1895H7.73726L8.20126 22.3891L14.9848 24.2723L15 24.2681V20.8226Z" fill="#EBEBEB"/>
<path d="M14.9885 12.2221V15.5337H19.0664L18.682 19.8285L14.9885 20.8254V24.2707L21.7774 22.3891L21.8272 21.8296L22.6054 13.1113L22.6862 12.2221L23.2841 5.51941H14.9885V8.83101H19.6549L19.3535 12.2221H14.9885Z" fill="white"/>
</svg>
