<svg width="31" height="30" viewBox="0 0 31 30" fill="none" xmlns="http://www.w3.org/2000/svg">
<g clip-path="url(#clip0_24_113)">
<path d="M5.48958 0H25.5104C28.5458 0 31 2.4359 31 5.44872V24.5513C31 27.5641 28.5458 30 25.5104 30H5.48958C2.45417 30 0 27.5641 0 24.5513V5.44872C0 2.4359 2.45417 0 5.48958 0Z" fill="#00005B"/>
<path d="M7.36255 21.0256V7.82049C7.36255 7.73074 7.4013 7.67946 7.49172 7.67946C7.7113 7.67946 7.91797 7.67946 8.21505 7.66664C8.52505 7.65382 8.84797 7.65382 9.19671 7.641C9.54546 7.62818 9.92005 7.62818 10.3205 7.61536C10.7209 7.60254 11.1084 7.60254 11.4959 7.60254C12.555 7.60254 13.4334 7.73074 14.1567 7.99998C14.8025 8.21792 15.3967 8.5769 15.8875 9.05126C16.3009 9.46151 16.6238 9.96151 16.8305 10.5128C17.0242 11.0513 17.1275 11.6025 17.1275 12.1795C17.1275 13.282 16.8692 14.1923 16.3525 14.9102C15.8359 15.6282 15.1125 16.1666 14.273 16.4743C13.3946 16.7948 12.4259 16.9102 11.3667 16.9102C11.0567 16.9102 10.85 16.9102 10.7209 16.8974C10.5917 16.8846 10.4109 16.8846 10.1655 16.8846V21C10.1784 21.0897 10.1138 21.1666 10.0234 21.1795H9.97171H7.51755C7.41422 21.1795 7.36255 21.1282 7.36255 21.0128V21.0256ZM10.1784 10.1666V14.4743C10.3592 14.4872 10.5271 14.5 10.6821 14.5H11.3667C11.8705 14.5 12.3742 14.4231 12.8521 14.2692C13.2655 14.1538 13.6271 13.9102 13.9113 13.5897C14.1825 13.2692 14.3117 12.8333 14.3117 12.2692C14.3246 11.8718 14.2213 11.4743 14.0146 11.1282C13.795 10.7948 13.485 10.5384 13.1105 10.3974C12.6325 10.2051 12.1159 10.1282 11.5863 10.141C11.2505 10.141 10.9534 10.141 10.708 10.1538C10.4496 10.141 10.2688 10.1538 10.1784 10.1666Z" fill="#9999FF"/>
<path d="M18.9876 10.9231H21.248C21.3772 10.9231 21.4805 11.0128 21.5193 11.1282C21.558 11.2308 21.5838 11.3333 21.5968 11.4487C21.6226 11.5769 21.6484 11.7179 21.6613 11.8462C21.6743 11.9872 21.6872 12.141 21.6872 12.3077C22.0747 11.859 22.5397 11.4872 23.0693 11.2051C23.6634 10.8718 24.348 10.7051 25.0326 10.7051C25.123 10.6923 25.2005 10.7564 25.2134 10.8462V10.8974V13.3974C25.2134 13.5 25.1488 13.5385 25.0068 13.5385C24.5418 13.5256 24.0638 13.5641 23.6118 13.6667C23.2372 13.7436 22.8755 13.859 22.5268 14.0128C22.2813 14.1282 22.0488 14.282 21.868 14.4872V21.0256C21.868 21.1538 21.8163 21.2051 21.7001 21.2051H19.1555C19.0522 21.2179 18.9618 21.1538 18.9488 21.0513V21V13.8974C18.9488 13.5897 18.9488 13.2692 18.9359 12.9359C18.923 12.6026 18.923 12.2692 18.9101 11.9359C18.9101 11.641 18.8843 11.359 18.8584 11.0641C18.8455 11 18.8843 10.9359 18.9488 10.9231C18.9488 10.9103 18.9747 10.9103 18.9876 10.9231Z" fill="#9999FF"/>
</g>
<defs>
<clipPath id="clip0_24_113">
<rect width="31" height="30" fill="white"/>
</clipPath>
</defs>
</svg>
