<svg width="31" height="30" viewBox="0 0 31 30" fill="none" xmlns="http://www.w3.org/2000/svg">
<g clip-path="url(#clip0_24_123)">
<path d="M5.48958 0H25.5104C28.5458 0 31 2.4359 31 5.44872V24.5513C31 27.5641 28.5458 30 25.5104 30H5.48958C2.45417 30 0 27.5641 0 24.5513V5.44872C0 2.4359 2.45417 0 5.48958 0Z" fill="#330000"/>
<path d="M14.9833 17.9487H10.1784L9.19668 20.9615C9.17085 21.0769 9.06752 21.1538 8.95127 21.141H6.52293C6.38085 21.141 6.3421 21.0641 6.38085 20.9102L10.54 9.0256C10.5788 8.8974 10.6175 8.75637 10.6692 8.60253C10.7208 8.3333 10.7467 8.05124 10.7467 7.76919C10.7338 7.70509 10.7854 7.64099 10.85 7.62817H14.1954C14.2988 7.62817 14.3504 7.66663 14.3633 7.73073L19.0779 20.9359C19.1167 21.0769 19.0779 21.141 18.9488 21.141H16.2492C16.1588 21.1538 16.0683 21.0897 16.0425 21L14.9833 17.9487ZM10.9275 15.3461H14.2083C14.1308 15.0769 14.0275 14.7564 13.9113 14.423C13.795 14.0769 13.6788 13.7051 13.5625 13.3205C13.4333 12.923 13.3171 12.5384 13.1879 12.141C13.0588 11.7436 12.9425 11.3718 12.8392 11C12.7358 10.641 12.6454 10.3077 12.555 9.99996H12.5292C12.4129 10.5512 12.2708 11.1025 12.09 11.6538C11.8963 12.2692 11.7025 12.9102 11.4958 13.5512C11.315 14.2051 11.1213 14.8077 10.9275 15.3461ZM21.9584 9.87176C21.5321 9.88458 21.1188 9.71791 20.8088 9.42304C20.5117 9.10253 20.3567 8.67945 20.3696 8.24355C20.3567 7.80765 20.5246 7.3974 20.8346 7.10253C21.1446 6.80765 21.5579 6.65381 21.9842 6.65381C22.4879 6.65381 22.8754 6.80765 23.1596 7.10253C23.4438 7.41022 23.5988 7.82048 23.5858 8.24355C23.5988 8.67945 23.4438 9.10253 23.1338 9.42304C22.8367 9.73073 22.3975 9.8974 21.9584 9.87176ZM20.5117 21V11.1282C20.5117 11 20.5634 10.9487 20.6796 10.9487H23.2371C23.3533 10.9487 23.405 11.0128 23.405 11.1282V21C23.405 21.141 23.3533 21.2051 23.2371 21.2051H20.7054C20.5763 21.2051 20.5117 21.1282 20.5117 21Z" fill="#FF9A00"/>
</g>
<defs>
<clipPath id="clip0_24_123">
<rect width="31" height="30" fill="white"/>
</clipPath>
</defs>
</svg>
