<svg width="30" height="30" viewBox="0 0 30 30" fill="none" xmlns="http://www.w3.org/2000/svg">
<g clip-path="url(#clip0_24_126)">
<path d="M5.3125 0H24.6875C27.625 0 30 2.4359 30 5.44872V24.5513C30 27.5641 27.625 30 24.6875 30H5.3125C2.375 30 0 27.5641 0 24.5513V5.44872C0 2.4359 2.375 0 5.3125 0Z" fill="#001E36"/>
<path d="M6.75 21.0384V7.84612C6.75 7.75638 6.7875 7.7051 6.875 7.7051C7.0875 7.7051 7.2875 7.7051 7.575 7.69228C7.875 7.67946 8.1875 7.67946 8.525 7.66664C8.8625 7.65381 9.225 7.65381 9.6125 7.64099C10 7.62817 10.375 7.62817 10.75 7.62817C11.775 7.62817 12.625 7.75638 13.325 8.02561C13.95 8.24356 14.525 8.60253 15 9.07689C15.4 9.48715 15.7125 9.98715 15.9125 10.5384C16.1 11.0769 16.2 11.6282 16.2 12.2051C16.2 13.3077 15.95 14.2179 15.45 14.9359C14.95 15.6538 14.25 16.1923 13.4375 16.5C12.5875 16.8205 11.65 16.9359 10.625 16.9359C10.325 16.9359 10.125 16.9359 10 16.923C9.875 16.9102 9.7 16.9102 9.4625 16.9102V21.0256C9.475 21.1154 9.4125 21.1923 9.325 21.2051C9.3125 21.2051 9.3 21.2051 9.275 21.2051H6.9C6.8 21.2051 6.75 21.1538 6.75 21.0384ZM9.475 10.1795V14.4871C9.65 14.5 9.8125 14.5128 9.9625 14.5128H10.625C11.1125 14.5128 11.6 14.4359 12.0625 14.282C12.4625 14.1666 12.8125 13.923 13.0875 13.6025C13.35 13.282 13.475 12.8461 13.475 12.282C13.4875 11.8846 13.3875 11.4871 13.1875 11.141C12.975 10.8077 12.675 10.5513 12.3125 10.4102C11.85 10.2179 11.35 10.141 10.8375 10.1538C10.5125 10.1538 10.225 10.1538 9.9875 10.1666C9.7375 10.1538 9.5625 10.1666 9.475 10.1795Z" fill="#31A8FF"/>
<path d="M24 13.7051C23.625 13.4999 23.225 13.3589 22.8 13.2692C22.3375 13.1666 21.875 13.1025 21.4 13.1025C21.15 13.0897 20.8875 13.1281 20.65 13.1922C20.4875 13.2307 20.35 13.3204 20.2625 13.4486C20.2 13.5512 20.1625 13.6794 20.1625 13.7948C20.1625 13.9102 20.2125 14.0256 20.2875 14.1281C20.4 14.2692 20.55 14.3845 20.7125 14.4743C21 14.6281 21.3 14.7692 21.6 14.8974C22.275 15.1281 22.925 15.4486 23.525 15.8333C23.9375 16.1025 24.275 16.4615 24.5125 16.8974C24.7125 17.3076 24.8125 17.7563 24.8 18.2179C24.8125 18.8204 24.6375 19.423 24.3125 19.923C23.9625 20.4358 23.475 20.8333 22.9125 21.064C22.3 21.3333 21.55 21.4743 20.65 21.4743C20.075 21.4743 19.5125 21.423 18.95 21.3076C18.5125 21.2307 18.075 21.0897 17.675 20.8974C17.5875 20.8461 17.525 20.7563 17.5375 20.6538V18.423C17.5375 18.3845 17.55 18.3333 17.5875 18.3076C17.625 18.282 17.6625 18.2948 17.7 18.3204C18.1875 18.6153 18.7 18.8204 19.25 18.9486C19.725 19.0768 20.225 19.141 20.725 19.141C21.2 19.141 21.5375 19.0768 21.7625 18.9615C21.9625 18.8717 22.1 18.6538 22.1 18.423C22.1 18.2435 22 18.0768 21.8 17.9102C21.6 17.7435 21.1875 17.5512 20.575 17.3076C19.9375 17.0768 19.35 16.7692 18.8 16.3845C18.4125 16.1025 18.0875 15.7307 17.85 15.2948C17.65 14.8845 17.55 14.4358 17.5625 13.9871C17.5625 13.4358 17.7125 12.9102 17.9875 12.4358C18.3 11.923 18.7625 11.5127 19.3 11.2563C19.8875 10.9486 20.625 10.8076 21.5125 10.8076C22.025 10.8076 22.55 10.8461 23.0625 10.923C23.4375 10.9743 23.8 11.0768 24.1375 11.2179C24.1875 11.2307 24.2375 11.282 24.2625 11.3333C24.275 11.3845 24.2875 11.4358 24.2875 11.4871V13.5768C24.2875 13.6281 24.2625 13.6794 24.225 13.7051C24.1125 13.7307 24.05 13.7307 24 13.7051Z" fill="#31A8FF"/>
</g>
<defs>
<clipPath id="clip0_24_126">
<rect width="30" height="30" fill="white"/>
</clipPath>
</defs>
</svg>
